HIERARCHY
ROOT root
{
  OFFSET 0 93.2929 0
  CHANNELS 6 Xposition Yposition Zposition Zrotation Xrotation Yrotation
  JOINT torso_1
  {
    OFFSET 0 5.07867 -1.15138
    CHANNELS 6 Xposition Yposition Zposition Zrotation Xrotation Yrotation
    JOINT torso_2
    {
      OFFSET 0 5.61661 1.07143
      CHANNELS 6 Xposition Yposition Zposition Zrotation Xrotation Yrotation
      JOINT torso_3
      {
        OFFSET -1.02604e-17 5.98978 0.11501
        CHANNELS 6 Xposition Yposition Zposition Zrotation Xrotation Yrotation
        JOINT torso_4
        {
          OFFSET -1.10457e-17 6.50583 -0.443523
          CHANNELS 6 Xposition Yposition Zposition Zrotation Xrotation Yrotation
          JOINT torso_5
          {
            OFFSET -1.97295e-17 7.60548 -1.50593
            CHANNELS 6 Xposition Yposition Zposition Zrotation Xrotation Yrotation
            JOINT torso_6
            {
              OFFSET -2.53307e-17 9.49737 -0.914492
              CHANNELS 6 Xposition Yposition Zposition Zrotation Xrotation Yrotation
              JOINT torso_7
              {
                OFFSET -2.90401e-17 10.5513 1.57691
                CHANNELS 6 Xposition Yposition Zposition Zrotation Xrotation Yrotation
                JOINT neck_1
                {
                  OFFSET -1.29193e-17 4.78644 0.715339
                  CHANNELS 6 Xposition Yposition Zposition Zrotation Xrotation Yrotation
                  JOINT neck_2
                  {
                    OFFSET -1.8116e-17 4.82109 0.421791
                    CHANNELS 6 Xposition Yposition Zposition Zrotation Xrotation Yrotation
                    JOINT head
                    {
                      OFFSET -2.00958e-17 4.83041 0.765062
                      CHANNELS 6 Xposition Yposition Zposition Zrotation Xrotation Yrotation
                      End Site
                      {
                        OFFSET 0 0.1 0
                      }
                    }
                  }
                }
                JOINT l_shoulder
                {
                  OFFSET 1.23299 -7.60731 7.53374
                  CHANNELS 6 Xposition Yposition Zposition Zrotation Xrotation Yrotation
                  JOINT l_up_arm
                  {
                    OFFSET 12.9547 3.2495 -3.26872
                    CHANNELS 6 Xposition Yposition Zposition Zrotation Xrotation Yrotation
                    JOINT l_low_arm
                    {
                      OFFSET 29.2081 0.0598081 0.137039
                      CHANNELS 6 Xposition Yposition Zposition Zrotation Xrotation Yrotation
                      JOINT l_hand
                      {
                        OFFSET 24.234 0.0496219 0.113701
                        CHANNELS 6 Xposition Yposition Zposition Zrotation Xrotation Yrotation
                        End Site
                        {
                          OFFSET 0.1 0 0
                        }
                      }
                    }
                  }
                }
                JOINT r_shoulder
                {
                  OFFSET -1.23299 -7.60729 7.53365
                  CHANNELS 6 Xposition Yposition Zposition Zrotation Xrotation Yrotation
                  JOINT r_up_arm
                  {
                    OFFSET -12.9547 3.2495 -3.26872
                    CHANNELS 6 Xposition Yposition Zposition Zrotation Xrotation Yrotation
                    JOINT r_low_arm
                    {
                      OFFSET -29.2081 0.0598081 0.137039
                      CHANNELS 6 Xposition Yposition Zposition Zrotation Xrotation Yrotation
                      JOINT r_hand
                      {
                        OFFSET -24.234 0.0496218 0.113702
                        CHANNELS 6 Xposition Yposition Zposition Zrotation Xrotation Yrotation
                        End Site
                        {
                          OFFSET -0.1 0 0
                        }
                      }
                    }
                  }
                }
              }
            }
          }
        }
      }
    }
  }
  JOINT l_up_leg
  {
    OFFSET 9.23673 -4.20556 2.0327
    CHANNELS 6 Xposition Yposition Zposition Zrotation Xrotation Yrotation
    JOINT l_low_leg
    {
      OFFSET -0.852353 -38.7721 -0.655187
      CHANNELS 6 Xposition Yposition Zposition Zrotation Xrotation Yrotation
      JOINT l_foot
      {
        OFFSET -2.32622 -40.4017 -6.04875
        CHANNELS 6 Xposition Yposition Zposition Zrotation Xrotation Yrotation
        JOINT l_toes
        {
          OFFSET 0.779096 -9.8844 12.4959
          CHANNELS 6 Xposition Yposition Zposition Zrotation Xrotation Yrotation
          End Site
          {
            OFFSET 0 0 0.1
          }
        }
      }
    }
  }
  JOINT r_up_leg
  {
    OFFSET -9.23673 -4.20556 2.0327
    CHANNELS 6 Xposition Yposition Zposition Zrotation Xrotation Yrotation
    JOINT r_low_leg
    {
      OFFSET 0.852353 -38.7721 -0.655187
      CHANNELS 6 Xposition Yposition Zposition Zrotation Xrotation Yrotation
      JOINT r_foot
      {
        OFFSET 2.32622 -40.4017 -6.04875
        CHANNELS 6 Xposition Yposition Zposition Zrotation Xrotation Yrotation
        JOINT r_toes
        {
          OFFSET -0.779096 -9.8844 12.4959
          CHANNELS 6 Xposition Yposition Zposition Zrotation Xrotation Yrotation
          End Site
          {
            OFFSET 0 0 0.1
          }
        }
      }
    }
  }
}
MOTION
Frames: 4
Frame Time: 0.016667
10.0714 91.0959 42.9849 7.87243 -0.0416203 2.53978 0 5.07867 -1.15138 -2.11775 -0.418386 0.327536 0 5.61661 1.07143 -1.6465 0.735827 -0.0670006 -1.02604e-17 5.98978 0.11501 -1.18663 2.185 -0.152219 -1.10457e-17 6.50583 -0.443523 -0.720582 4.48714 -0.193036 -1.97295e-17 7.60548 -1.50593 -0.207627 5.62582 -0.10914 -2.53307e-17 9.49737 -0.914492 0.388825 6.48953 -0.365942 -2.90401e-17 10.5513 1.57691 -0.089832 0.185163 0.201707 -1.29193e-17 4.78644 0.715339 -4.03124 -52.7554 -7.00739 -1.8116e-17 4.82109 0.421791 0.610029 2.79435 -2.08131 -2.00958e-17 4.83041 0.765062 -3.57229 40.1576 3.93374 1.23299 -7.60731 7.53374 -17.8173 8.96222 -12.2427 12.9547 3.2495 -3.26872 -43.4838 26.2116 -25.9957 29.2081 0.0598081 0.137039 10.7168 -6.54698 -63.3413 24.234 0.0496219 0.113701 -1.19992 -29.1503 -6.82657 -1.23299 -7.60729 7.53365 11.4619 4.68766 10.8967 -12.9547 3.2495 -3.26872 57.4764 27.5499 26.562 -29.2081 0.0598081 0.137039 -10.5891 -6.30403 62.0336 -24.234 0.0496218 0.113702 -2.61408 -22.184 3.59843 9.23673 -4.20556 2.0327 -5.91508 -4.60548 -2.97543 -0.852353 -38.7721 -0.655187 -2.40158 8.93479 0.0313748 -2.32622 -40.4017 -6.04875 -2.78146 -6.42813 15.7492 0.779096 -9.8844 12.4959 2.48481e-17 -7.95139e-16 1.2424e-17 -9.23673 -4.20556 2.0327 -13.0027 -21.7257 14.8423 0.852353 -38.7721 -0.655187 4.55333 16.662 -0.37396 2.32622 -40.4017 -6.04875 3.20339 -0.917055 -15.6367 -0.779096 -9.8844 12.4959 -8.97648e-16 -5.49666e-16 -1.27282e-14 
9.68366 91.124 42.7601 7.87466 0.148434 3.09509 0 5.07867 -1.15138 -2.12052 -0.465952 0.327869 0 5.61661 1.07143 -1.65547 0.709813 -0.0609394 -1.02604e-17 5.98978 0.11501 -1.19399 2.19168 -0.143091 -1.10457e-17 6.50583 -0.443523 -0.72454 4.54715 -0.182208 -1.97295e-17 7.60548 -1.50593 -0.207562 5.71228 -0.0953853 -2.53307e-17 9.49737 -0.914492 0.394354 6.5911 -0.348944 -2.90401e-17 10.5513 1.57691 -0.0836344 0.179713 0.201924 -1.29193e-17 4.78644 0.715339 -4.22225 -52.3015 -7.19057 -1.8116e-17 4.82109 0.421791 0.706597 2.49459 -2.15332 -2.00958e-17 4.83041 0.765062 -3.14482 39.7073 3.44094 1.23299 -7.60731 7.53374 -17.6595 8.76644 -12.1399 12.9547 3.2495 -3.26872 -43.0709 26.8398 -26.4337 29.2081 0.0598081 0.137039 10.7396 -6.59166 -63.5801 24.234 0.0496219 0.113701 -1.08627 -29.7552 -6.55535 -1.23299 -7.60729 7.53365 11.3422 4.54569 10.9145 -12.9547 3.2495 -3.26872 57.1338 27.2375 27.0861 -29.2081 0.0598081 0.137039 -10.6176 -6.35699 62.3199 -24.234 0.0496218 0.113702 -2.8504 -21.7082 2.83878 9.23673 -4.20556 2.0327 -5.70892 -5.03943 -3.28133 -0.852353 -38.7721 -0.655187 -2.43634 9.06264 0.034581 -2.32622 -40.4017 -6.04875 -2.95303 -6.21516 15.7602 0.779096 -9.8844 12.4959 1.2112e-16 -7.9213e-16 9.41556e-18 -9.23673 -4.20556 2.0327 -13.026 -21.8686 14.5102 0.852353 -38.7721 -0.655187 4.53197 16.5875 -0.369151 2.32622 -40.4017 -6.04875 3.32976 -0.765522 -15.6229 -0.779096 -9.8844 12.4959 -5.96354e-16 -5.59082e-16 -1.27471e-14 
9.27664 91.1504 42.56 7.87295 0.23767 3.50698 0 5.07867 -1.15138 -2.13031 -0.566478 0.344945 0 5.61661 1.07143 -1.67488 0.635095 -0.0329624 -1.02604e-17 5.98978 0.11501 -1.21062 2.16079 -0.105761 -1.10457e-17 6.50583 -0.443523 -0.737538 4.57172 -0.138748 -1.97295e-17 7.60548 -1.50593 -0.209499 5.76618 -0.0473416 -2.53307e-17 9.49737 -0.914492 0.408929 6.65486 -0.295931 -2.90401e-17 10.5513 1.57691 -0.0756243 0.175586 0.206598 -1.29193e-17 4.78644 0.715339 -4.24627 -51.0253 -7.1735 -1.8116e-17 4.82109 0.421791 0.826749 2.20147 -2.20669 -2.00958e-17 4.83041 0.765062 -2.76632 38.5749 2.91411 1.23299 -7.60731 7.53374 -17.3269 8.49277 -12.0191 12.9547 3.2495 -3.26872 -42.5301 27.5514 -26.9879 29.2081 0.0598081 0.137039 10.7452 -6.60272 -63.6391 24.234 0.0496219 0.113701 -1.02156 -30.6087 -6.38654 -1.23299 -7.60729 7.53365 11.2075 4.45178 10.9707 -12.9547 3.2495 -3.26872 57.0378 27.2353 27.8432 -29.2081 0.0598081 0.137039 -10.6056 -6.33456 62.1987 -24.234 0.0496218 0.113702 -3.41992 -21.2363 2.05335 9.23673 -4.20556 2.0327 -5.47589 -5.39994 -3.64407 -0.852353 -38.7721 -0.655187 -2.4895 9.25796 0.0396337 -2.32622 -40.4017 -6.04875 -3.06799 -5.99715 15.7801 0.779096 -9.8844 12.4959 1.33603e-16 -7.94749e-16 1.20339e-17 -9.23673 -4.20556 2.0327 -12.9829 -21.9332 14.2414 0.852353 -38.7721 -0.655187 4.50441 16.4914 -0.362987 2.32622 -40.4017 -6.04875 3.51783 -0.623843 -15.6113 -0.779096 -9.8844 12.4959 -6.92625e-16 -5.56073e-16 -1.27411e-14 
8.86566 91.1746 42.3665 7.84627 0.246397 3.7933 0 5.07867 -1.15138 -2.12711 -0.575728 0.353813 0 5.61661 1.07143 -1.67824 0.633701 -0.0178829 -1.02604e-17 5.98978 0.11501 -1.21509 2.18656 -0.088397 -1.10457e-17 6.50583 -0.443523 -0.740394 4.64301 -0.119608 -1.97295e-17 7.60548 -1.50593 -0.209168 5.85518 -0.0271947 -2.53307e-17 9.49737 -0.914492 0.415849 6.75345 -0.276796 -2.90401e-17 10.5513 1.57691 -0.0743394 0.163429 0.206895 -1.29193e-17 4.78644 0.715339 -4.30898 -50.78 -7.26857 -1.8116e-17 4.82109 0.421791 0.92299 1.84736 -2.24147 -2.00958e-17 4.83041 0.765062 -2.69235 38.1357 2.83085 1.23299 -7.60731 7.53374 -17.0916 8.28969 -11.9488 12.9547 3.2495 -3.26872 -42.325 27.8165 -27.6705 29.2081 0.0598081 0.137039 10.7473 -6.60693 -63.6616 24.234 0.0496219 0.113701 -0.822962 -30.7181 -6.17721 -1.23299 -7.60729 7.53365 11.1989 4.378 11.0367 -12.9547 3.2495 -3.26872 56.8138 26.9776 28.2981 -29.2081 0.0598081 0.137039 -10.5816 -6.29022 61.9588 -24.234 0.0496218 0.113702 -3.41696 -20.8521 2.16037 9.23673 -4.20556 2.0327 -5.204 -5.70791 -3.89243 -0.852353 -38.7721 -0.655187 -2.55813 9.50986 0.0464255 -2.32622 -40.4017 -6.04875 -3.09904 -5.77584 15.7989 0.779096 -9.8844 12.4959 -4.81476e-16 -8.20377e-16 3.76622e-17 -9.23673 -4.20556 2.0327 -12.841 -21.9836 14.1244 0.852353 -38.7721 -0.655187 4.48656 16.4291 -0.359019 2.32622 -40.4017 -6.04875 3.66713 -0.429338 -15.6023 -0.779096 -9.8844 12.4959 -8.97652e-16 -5.49666e-16 -1.27282e-14 
